<svg width="48" height="48" viewBox="0 0 48 48" fill="none" xmlns="http://www.w3.org/2000/svg">
<path fill-rule="evenodd" clip-rule="evenodd" d="M20.9917 24.0018L13.3215 28.488L7.24161 25.6971L5.99353 28.4426L10.1427 30.3473L7.86044 31.6821L9.34588 34.2886L11.6278 32.9539L11.1814 37.5457L14.1525 37.8235L14.8066 31.0947L22.4804 26.6063V35.6292L17.0505 39.5702L18.8127 41.9981L22.4804 39.3361V42H25.4804V39.336L29.1483 41.9981L30.9105 39.5702L25.4804 35.6291V26.6272L33.1713 31.1255L33.8255 37.855L36.7966 37.5772L36.3501 32.9847L38.6325 34.3197L40.118 31.7133L37.8359 30.3785L41.9845 28.4742L40.7364 25.7287L34.6571 28.5193L26.9335 24.0018L34.6333 19.4983L40.7527 22.3073L42.0008 19.5618L37.8121 17.639L40.121 16.2886L38.6355 13.6821L36.3708 15.0068L36.8129 10.4587L33.8418 10.1809L33.192 16.866L25.4804 21.3764V12.4013L30.9453 8.43491L29.1832 6.00699L25.4804 8.69444V6H22.4804V8.64368L18.8475 6.00699L17.0854 8.43491L22.4804 12.3506V21.3973L14.8302 16.9227L14.1718 10.1497L11.2007 10.4275L11.6514 15.0635L9.34287 13.7133L7.85744 16.3197L10.1221 17.6443L6.01281 19.5306L7.26088 22.2761L13.3009 19.5035L20.9917 24.0018Z" fill="white"/>
</svg>
